<svg xmlns="http://www.w3.org/2000/svg" viewBox="0 0 64 64"><rect width="64" height="64" rx="16" fill="#08131f"/><path d="M16 17h25c4 0 7 3 7 7v23H23c-4 0-7-3-7-7V17Z" fill="#11283d" stroke="#ff7a1a" stroke-width="2"/><path d="M22 27h18M22 34h13M22 41h16" stroke="#d8e3ed" stroke-width="2.5" stroke-linecap="round" opacity=".8"/><path d="M48 13c1.4 0 2.5 1.1 2.5 2.5v8.2l7.5 4.4v2.5l-7.5-2.2v6.2l2.6 2v2L48 37.2l-5.1 1.4v-2l2.6-2v-6.2L38 30.6v-2.5l7.5-4.4v-8.2c0-1.4 1.1-2.5 2.5-2.5Z" fill="#ff7a1a"/></svg>